<svg xmlns="http://www.w3.org/2000/svg" width="760" height="760" viewBox="0 0 760 760">
<rect width="100%" height="100%" fill="#ffffff"/>
<text x="380.0" y="30" text-anchor="middle" font-size="18" font-family="Arial, SimHei">sklearn多分类：TF-IDF + SGDClassifier</text>
<text x="380.0" y="748" text-anchor="middle" font-size="13" font-family="Arial, SimHei">预测标签</text>
<text x="18" y="380.0" transform="rotate(-90 18 380.0)" text-anchor="middle" font-size="13" font-family="Arial, SimHei">真实标签</text>
<text x="140.0" y="52" text-anchor="middle" font-size="14" font-family="Arial, SimHei">喜悦</text>
<text x="230.0" y="52" text-anchor="middle" font-size="14" font-family="Arial, SimHei">满意</text>
<text x="320.0" y="52" text-anchor="middle" font-size="14" font-family="Arial, SimHei">赞赏</text>
<text x="410.0" y="52" text-anchor="middle" font-size="14" font-family="Arial, SimHei">失望</text>
<text x="500.0" y="52" text-anchor="middle" font-size="14" font-family="Arial, SimHei">愤怒</text>
<text x="590.0" y="52" text-anchor="middle" font-size="14" font-family="Arial, SimHei">厌恶</text>
<text x="680.0" y="52" text-anchor="middle" font-size="14" font-family="Arial, SimHei">中性</text>
<text x="77" y="120.0" text-anchor="end" font-size="14" font-family="Arial, SimHei">喜悦</text>
<text x="77" y="210.0" text-anchor="end" font-size="14" font-family="Arial, SimHei">满意</text>
<text x="77" y="300.0" text-anchor="end" font-size="14" font-family="Arial, SimHei">赞赏</text>
<text x="77" y="390.0" text-anchor="end" font-size="14" font-family="Arial, SimHei">失望</text>
<text x="77" y="480.0" text-anchor="end" font-size="14" font-family="Arial, SimHei">愤怒</text>
<text x="77" y="570.0" text-anchor="end" font-size="14" font-family="Arial, SimHei">厌恶</text>
<text x="77" y="660.0" text-anchor="end" font-size="14" font-family="Arial, SimHei">中性</text>
<rect x="95" y="70" width="90" height="90" fill="rgb(140,145,255)" stroke="#334155"/>
<text x="140.0" y="121.0" text-anchor="middle" font-size="22" font-family="Arial, SimHei" fill="#0f172a">41</text>
<rect x="185" y="70" width="90" height="90" fill="rgb(245,250,255)" stroke="#334155"/>
<text x="230.0" y="121.0" text-anchor="middle" font-size="22" font-family="Arial, SimHei" fill="#0f172a">0</text>
<rect x="275" y="70" width="90" height="90" fill="rgb(245,250,255)" stroke="#334155"/>
<text x="320.0" y="121.0" text-anchor="middle" font-size="22" font-family="Arial, SimHei" fill="#0f172a">0</text>
<rect x="365" y="70" width="90" height="90" fill="rgb(245,250,255)" stroke="#334155"/>
<text x="410.0" y="121.0" text-anchor="middle" font-size="22" font-family="Arial, SimHei" fill="#0f172a">0</text>
<rect x="455" y="70" width="90" height="90" fill="rgb(245,250,255)" stroke="#334155"/>
<text x="500.0" y="121.0" text-anchor="middle" font-size="22" font-family="Arial, SimHei" fill="#0f172a">0</text>
<rect x="545" y="70" width="90" height="90" fill="rgb(245,250,255)" stroke="#334155"/>
<text x="590.0" y="121.0" text-anchor="middle" font-size="22" font-family="Arial, SimHei" fill="#0f172a">0</text>
<rect x="635" y="70" width="90" height="90" fill="rgb(245,250,255)" stroke="#334155"/>
<text x="680.0" y="121.0" text-anchor="middle" font-size="22" font-family="Arial, SimHei" fill="#0f172a">0</text>
<rect x="95" y="160" width="90" height="90" fill="rgb(245,250,255)" stroke="#334155"/>
<text x="140.0" y="211.0" text-anchor="middle" font-size="22" font-family="Arial, SimHei" fill="#0f172a">0</text>
<rect x="185" y="160" width="90" height="90" fill="rgb(95,100,255)" stroke="#334155"/>
<text x="230.0" y="211.0" text-anchor="middle" font-size="22" font-family="Arial, SimHei" fill="#0f172a">59</text>
<rect x="275" y="160" width="90" height="90" fill="rgb(245,250,255)" stroke="#334155"/>
<text x="320.0" y="211.0" text-anchor="middle" font-size="22" font-family="Arial, SimHei" fill="#0f172a">0</text>
<rect x="365" y="160" width="90" height="90" fill="rgb(245,250,255)" stroke="#334155"/>
<text x="410.0" y="211.0" text-anchor="middle" font-size="22" font-family="Arial, SimHei" fill="#0f172a">0</text>
<rect x="455" y="160" width="90" height="90" fill="rgb(245,250,255)" stroke="#334155"/>
<text x="500.0" y="211.0" text-anchor="middle" font-size="22" font-family="Arial, SimHei" fill="#0f172a">0</text>
<rect x="545" y="160" width="90" height="90" fill="rgb(245,250,255)" stroke="#334155"/>
<text x="590.0" y="211.0" text-anchor="middle" font-size="22" font-family="Arial, SimHei" fill="#0f172a">0</text>
<rect x="635" y="160" width="90" height="90" fill="rgb(245,250,255)" stroke="#334155"/>
<text x="680.0" y="211.0" text-anchor="middle" font-size="22" font-family="Arial, SimHei" fill="#0f172a">0</text>
<rect x="95" y="250" width="90" height="90" fill="rgb(245,250,255)" stroke="#334155"/>
<text x="140.0" y="301.0" text-anchor="middle" font-size="22" font-family="Arial, SimHei" fill="#0f172a">0</text>
<rect x="185" y="250" width="90" height="90" fill="rgb(245,250,255)" stroke="#334155"/>
<text x="230.0" y="301.0" text-anchor="middle" font-size="22" font-family="Arial, SimHei" fill="#0f172a">0</text>
<rect x="275" y="250" width="90" height="90" fill="rgb(204,209,255)" stroke="#334155"/>
<text x="320.0" y="301.0" text-anchor="middle" font-size="22" font-family="Arial, SimHei" fill="#0f172a">16</text>
<rect x="365" y="250" width="90" height="90" fill="rgb(245,250,255)" stroke="#334155"/>
<text x="410.0" y="301.0" text-anchor="middle" font-size="22" font-family="Arial, SimHei" fill="#0f172a">0</text>
<rect x="455" y="250" width="90" height="90" fill="rgb(245,250,255)" stroke="#334155"/>
<text x="500.0" y="301.0" text-anchor="middle" font-size="22" font-family="Arial, SimHei" fill="#0f172a">0</text>
<rect x="545" y="250" width="90" height="90" fill="rgb(245,250,255)" stroke="#334155"/>
<text x="590.0" y="301.0" text-anchor="middle" font-size="22" font-family="Arial, SimHei" fill="#0f172a">0</text>
<rect x="635" y="250" width="90" height="90" fill="rgb(245,250,255)" stroke="#334155"/>
<text x="680.0" y="301.0" text-anchor="middle" font-size="22" font-family="Arial, SimHei" fill="#0f172a">0</text>
<rect x="95" y="340" width="90" height="90" fill="rgb(245,250,255)" stroke="#334155"/>
<text x="140.0" y="391.0" text-anchor="middle" font-size="22" font-family="Arial, SimHei" fill="#0f172a">0</text>
<rect x="185" y="340" width="90" height="90" fill="rgb(245,250,255)" stroke="#334155"/>
<text x="230.0" y="391.0" text-anchor="middle" font-size="22" font-family="Arial, SimHei" fill="#0f172a">0</text>
<rect x="275" y="340" width="90" height="90" fill="rgb(245,250,255)" stroke="#334155"/>
<text x="320.0" y="391.0" text-anchor="middle" font-size="22" font-family="Arial, SimHei" fill="#0f172a">0</text>
<rect x="365" y="340" width="90" height="90" fill="rgb(110,115,255)" stroke="#334155"/>
<text x="410.0" y="391.0" text-anchor="middle" font-size="22" font-family="Arial, SimHei" fill="#0f172a">53</text>
<rect x="455" y="340" width="90" height="90" fill="rgb(245,250,255)" stroke="#334155"/>
<text x="500.0" y="391.0" text-anchor="middle" font-size="22" font-family="Arial, SimHei" fill="#0f172a">0</text>
<rect x="545" y="340" width="90" height="90" fill="rgb(245,250,255)" stroke="#334155"/>
<text x="590.0" y="391.0" text-anchor="middle" font-size="22" font-family="Arial, SimHei" fill="#0f172a">0</text>
<rect x="635" y="340" width="90" height="90" fill="rgb(245,250,255)" stroke="#334155"/>
<text x="680.0" y="391.0" text-anchor="middle" font-size="22" font-family="Arial, SimHei" fill="#0f172a">0</text>
<rect x="95" y="430" width="90" height="90" fill="rgb(245,250,255)" stroke="#334155"/>
<text x="140.0" y="481.0" text-anchor="middle" font-size="22" font-family="Arial, SimHei" fill="#0f172a">0</text>
<rect x="185" y="430" width="90" height="90" fill="rgb(245,250,255)" stroke="#334155"/>
<text x="230.0" y="481.0" text-anchor="middle" font-size="22" font-family="Arial, SimHei" fill="#0f172a">0</text>
<rect x="275" y="430" width="90" height="90" fill="rgb(245,250,255)" stroke="#334155"/>
<text x="320.0" y="481.0" text-anchor="middle" font-size="22" font-family="Arial, SimHei" fill="#0f172a">0</text>
<rect x="365" y="430" width="90" height="90" fill="rgb(245,250,255)" stroke="#334155"/>
<text x="410.0" y="481.0" text-anchor="middle" font-size="22" font-family="Arial, SimHei" fill="#0f172a">0</text>
<rect x="455" y="430" width="90" height="90" fill="rgb(148,153,255)" stroke="#334155"/>
<text x="500.0" y="481.0" text-anchor="middle" font-size="22" font-family="Arial, SimHei" fill="#0f172a">38</text>
<rect x="545" y="430" width="90" height="90" fill="rgb(245,250,255)" stroke="#334155"/>
<text x="590.0" y="481.0" text-anchor="middle" font-size="22" font-family="Arial, SimHei" fill="#0f172a">0</text>
<rect x="635" y="430" width="90" height="90" fill="rgb(245,250,255)" stroke="#334155"/>
<text x="680.0" y="481.0" text-anchor="middle" font-size="22" font-family="Arial, SimHei" fill="#0f172a">0</text>
<rect x="95" y="520" width="90" height="90" fill="rgb(245,250,255)" stroke="#334155"/>
<text x="140.0" y="571.0" text-anchor="middle" font-size="22" font-family="Arial, SimHei" fill="#0f172a">0</text>
<rect x="185" y="520" width="90" height="90" fill="rgb(245,250,255)" stroke="#334155"/>
<text x="230.0" y="571.0" text-anchor="middle" font-size="22" font-family="Arial, SimHei" fill="#0f172a">0</text>
<rect x="275" y="520" width="90" height="90" fill="rgb(245,250,255)" stroke="#334155"/>
<text x="320.0" y="571.0" text-anchor="middle" font-size="22" font-family="Arial, SimHei" fill="#0f172a">0</text>
<rect x="365" y="520" width="90" height="90" fill="rgb(245,250,255)" stroke="#334155"/>
<text x="410.0" y="571.0" text-anchor="middle" font-size="22" font-family="Arial, SimHei" fill="#0f172a">0</text>
<rect x="455" y="520" width="90" height="90" fill="rgb(245,250,255)" stroke="#334155"/>
<text x="500.0" y="571.0" text-anchor="middle" font-size="22" font-family="Arial, SimHei" fill="#0f172a">0</text>
<rect x="545" y="520" width="90" height="90" fill="rgb(204,209,255)" stroke="#334155"/>
<text x="590.0" y="571.0" text-anchor="middle" font-size="22" font-family="Arial, SimHei" fill="#0f172a">16</text>
<rect x="635" y="520" width="90" height="90" fill="rgb(245,250,255)" stroke="#334155"/>
<text x="680.0" y="571.0" text-anchor="middle" font-size="22" font-family="Arial, SimHei" fill="#0f172a">0</text>
<rect x="95" y="610" width="90" height="90" fill="rgb(245,250,255)" stroke="#334155"/>
<text x="140.0" y="661.0" text-anchor="middle" font-size="22" font-family="Arial, SimHei" fill="#0f172a">0</text>
<rect x="185" y="610" width="90" height="90" fill="rgb(245,250,255)" stroke="#334155"/>
<text x="230.0" y="661.0" text-anchor="middle" font-size="22" font-family="Arial, SimHei" fill="#0f172a">0</text>
<rect x="275" y="610" width="90" height="90" fill="rgb(245,250,255)" stroke="#334155"/>
<text x="320.0" y="661.0" text-anchor="middle" font-size="22" font-family="Arial, SimHei" fill="#0f172a">0</text>
<rect x="365" y="610" width="90" height="90" fill="rgb(245,250,255)" stroke="#334155"/>
<text x="410.0" y="661.0" text-anchor="middle" font-size="22" font-family="Arial, SimHei" fill="#0f172a">0</text>
<rect x="455" y="610" width="90" height="90" fill="rgb(245,250,255)" stroke="#334155"/>
<text x="500.0" y="661.0" text-anchor="middle" font-size="22" font-family="Arial, SimHei" fill="#0f172a">0</text>
<rect x="545" y="610" width="90" height="90" fill="rgb(245,250,255)" stroke="#334155"/>
<text x="590.0" y="661.0" text-anchor="middle" font-size="22" font-family="Arial, SimHei" fill="#0f172a">0</text>
<rect x="635" y="610" width="90" height="90" fill="rgb(204,209,255)" stroke="#334155"/>
<text x="680.0" y="661.0" text-anchor="middle" font-size="22" font-family="Arial, SimHei" fill="#0f172a">16</text>
</svg>